<?xml version="1.0" encoding="UTF-8"?>
<!DOCTYPE svg PUBLIC "-//W3C//DTD SVG 1.1//EN" "http://www.w3.org/Graphics/SVG/1.1/DTD/svg11.dtd">
<svg xmlns="http://www.w3.org/2000/svg" version="1.1" width="820px" height="638px" style="shape-rendering:geometricPrecision; text-rendering:geometricPrecision; image-rendering:optimizeQuality; fill-rule:evenodd; clip-rule:evenodd" xmlns:xlink="http://www.w3.org/1999/xlink">
<g><path style="opacity:1" fill="#ffffff" d="M 437.5,41.5 C 450.761,43.5492 464.094,45.8826 477.5,48.5C 487.78,51.6241 498.113,54.6241 508.5,57.5C 520.432,62.4601 532.432,67.4601 544.5,72.5C 584.117,92.4175 618.284,119.417 647,153.5C 671.25,186.322 690.583,221.989 705,260.5C 705.798,262.259 705.631,263.926 704.5,265.5C 699.099,262.468 693.432,259.968 687.5,258C 663.122,252.791 638.788,247.458 614.5,242C 601.705,236.774 590.039,229.774 579.5,221C 565.564,208.069 552.731,194.236 541,179.5C 519.903,156.722 496.737,136.555 471.5,119C 447.079,103.081 420.412,93.0809 391.5,89C 374.766,88.023 358.099,88.523 341.5,90.5C 334.825,90.6663 328.158,90.4996 321.5,90C 318.382,88.9779 315.382,87.8113 312.5,86.5C 309.051,81.5482 305.051,77.0482 300.5,73C 295.478,70.4375 290.145,69.1041 284.5,69C 299.803,61.2877 315.803,55.4543 332.5,51.5C 340.165,51.2969 347.498,49.7969 354.5,47C 358.833,46.6667 363.167,46.3333 367.5,46C 368.381,45.2917 369.047,44.4584 369.5,43.5C 392.082,40.4126 414.749,39.7459 437.5,41.5 Z"/></g>
<g><path style="opacity:1" fill="#ffffff" d="M 437.5,41.5 C 450.701,41.8396 463.701,43.6729 476.5,47C 477.056,47.3826 477.389,47.8826 477.5,48.5C 464.094,45.8826 450.761,43.5492 437.5,41.5 Z"/></g>
<g><path style="opacity:1" fill="#ffffff" d="M 369.5,43.5 C 369.047,44.4584 368.381,45.2917 367.5,46C 363.167,46.3333 358.833,46.6667 354.5,47C 347.498,49.7969 340.165,51.2969 332.5,51.5C 344.555,48.0494 356.888,45.3827 369.5,43.5 Z"/></g>
<g><path style="opacity:1" fill="#ffffff" d="M 508.5,57.5 C 519.644,60.1155 530.311,63.9488 540.5,69C 542.093,69.9487 543.426,71.1154 544.5,72.5C 532.432,67.4601 520.432,62.4601 508.5,57.5 Z"/></g>
<g><path style="opacity:1" fill="#ffffff" d="M 312.5,86.5 C 315.382,87.8113 318.382,88.9779 321.5,90C 328.158,90.4996 334.825,90.6663 341.5,90.5C 332.41,93.519 323.41,93.019 314.5,89C 313.619,88.2917 312.953,87.4584 312.5,86.5 Z"/></g>
<g><path style="opacity:1" fill="#ffffff" d="M 220.5,112.5 C 220.073,118.114 220.74,123.447 222.5,128.5C 223.09,132.602 224.09,136.602 225.5,140.5C 224.896,143.976 223.896,147.309 222.5,150.5C 216.113,156.554 210.446,163.221 205.5,170.5C 192.047,187.054 181.38,205.387 173.5,225.5C 171.087,231.151 169.587,237.151 169,243.5C 167.55,256.128 166.717,268.795 166.5,281.5C 165.341,292.326 165.174,303.326 166,314.5C 166.222,319.412 167.055,324.079 168.5,328.5C 168.906,336.604 170.073,344.604 172,352.5C 172.701,356.109 173.868,359.442 175.5,362.5C 175.5,362.833 175.5,363.167 175.5,363.5C 175.588,368.536 176.088,373.536 177,378.5C 177.374,380.491 178.207,382.158 179.5,383.5C 179.67,388.859 180.17,394.192 181,399.5C 181.857,404.422 183.357,409.089 185.5,413.5C 186.626,416.465 187.626,419.465 188.5,422.5C 189.159,425.455 189.492,428.455 189.5,431.5C 189.41,434.152 190.076,436.485 191.5,438.5C 192.202,439.116 193.202,439.116 194.5,438.5C 200.754,434.582 206.421,429.915 211.5,424.5C 251.062,391.373 293.728,362.706 339.5,338.5C 343.151,337.341 346.485,335.674 349.5,333.5C 349.833,333.5 350.167,333.5 350.5,333.5C 358.154,329.626 365.821,325.959 373.5,322.5C 379.294,320.012 385.294,318.345 391.5,317.5C 391.649,318.552 391.483,319.552 391,320.5C 388.002,322.333 385.502,324.666 383.5,327.5C 333.154,353.828 286.82,385.828 244.5,423.5C 236.194,430.471 228.194,437.804 220.5,445.5C 214.824,451.177 209.491,457.177 204.5,463.5C 198.78,469.279 193.78,475.613 189.5,482.5C 182.586,490.649 176.92,499.649 172.5,509.5C 169.073,515.431 166.406,521.764 164.5,528.5C 164.5,528.833 164.5,529.167 164.5,529.5C 161.52,536.408 160.187,543.741 160.5,551.5C 159.937,558.684 161.27,565.35 164.5,571.5C 166.801,580.437 171.801,587.437 179.5,592.5C 167.686,593.832 155.519,594.499 143,594.5C 130.833,594.333 118.667,594.167 106.5,594C 106,593.5 105.5,593 105,592.5C 104.5,499.501 104.333,406.501 104.5,313.5C 105.053,308.518 105.387,303.518 105.5,298.5C 106.42,290.885 108.087,283.551 110.5,276.5C 111.117,276.389 111.617,276.056 112,275.5C 114.407,265.783 116.907,256.116 119.5,246.5C 120.947,240.943 122.947,235.61 125.5,230.5C 136.151,205.837 149.818,183.171 166.5,162.5C 170.7,158.504 174.7,154.171 178.5,149.5C 179.127,148.583 179.461,147.583 179.5,146.5C 188.559,135.107 198.892,125.107 210.5,116.5C 213.771,114.409 216.937,112.076 220,109.5C 220.483,110.448 220.649,111.448 220.5,112.5 Z"/></g>
<g><path style="opacity:1" fill="#ffffff" d="M 224.5,104.5 C 224.938,104.435 225.272,104.601 225.5,105C 223.686,107.479 222.019,109.979 220.5,112.5C 220.649,111.448 220.483,110.448 220,109.5C 216.937,112.076 213.771,114.409 210.5,116.5C 214.382,111.563 219.048,107.563 224.5,104.5 Z"/></g>
<g><path style="opacity:1" fill="#ffffff" d="M 222.5,128.5 C 220.74,123.447 220.073,118.114 220.5,112.5C 222.019,109.979 223.686,107.479 225.5,105C 225.272,104.601 224.938,104.435 224.5,104.5C 225.368,102.375 226.368,102.209 227.5,104C 222.879,111.375 221.213,119.541 222.5,128.5 Z"/></g>
<g><path style="opacity:1" fill="#ffffff" d="M 179.5,146.5 C 179.461,147.583 179.127,148.583 178.5,149.5C 174.7,154.171 170.7,158.504 166.5,162.5C 170.083,156.581 174.416,151.248 179.5,146.5 Z"/></g>
<g><path style="opacity:1" fill="#ffffff" d="M 222.5,150.5 C 222.291,151.922 221.791,153.255 221,154.5C 215.917,160.08 210.751,165.413 205.5,170.5C 210.446,163.221 216.113,156.554 222.5,150.5 Z"/></g>
<g><path style="opacity:1" fill="#ffffff" d="M 125.5,230.5 C 122.947,235.61 120.947,240.943 119.5,246.5C 118.687,248.261 117.687,249.928 116.5,251.5C 118.365,244.762 120.532,238.095 123,231.5C 123.671,230.748 124.504,230.414 125.5,230.5 Z"/></g>
<g><path style="opacity:1" fill="#ffffff" d="M 119.5,246.5 C 116.907,256.116 114.407,265.783 112,275.5C 111.617,276.056 111.117,276.389 110.5,276.5C 112.028,268.053 114.028,259.72 116.5,251.5C 117.687,249.928 118.687,248.261 119.5,246.5 Z"/></g>
<g><path style="opacity:1" fill="#ffffff" d="M 166.5,281.5 C 166.147,297.223 166.814,312.889 168.5,328.5C 167.055,324.079 166.222,319.412 166,314.5C 165.174,303.326 165.341,292.326 166.5,281.5 Z"/></g>
<g><path style="opacity:1" fill="#ffffff" d="M 105.5,298.5 C 105.387,303.518 105.053,308.518 104.5,313.5C 104.167,313.5 103.833,313.5 103.5,313.5C 103.444,308.269 104.111,303.269 105.5,298.5 Z"/></g>
<g><path style="opacity:1" fill="#ffffff" d="M 173.5,225.5 C 167.344,264.966 167.011,304.299 172.5,343.5C 170.983,338.552 169.65,333.552 168.5,328.5C 166.814,312.889 166.147,297.223 166.5,281.5C 166.717,268.795 167.55,256.128 169,243.5C 169.587,237.151 171.087,231.151 173.5,225.5 Z"/></g>
<g><path style="opacity:1" fill="#ffffff" d="M 642.5,327.5 C 639.518,327.037 636.518,326.704 633.5,326.5C 625.326,325.408 616.992,325.408 608.5,326.5C 613.119,325.172 618.119,324.506 623.5,324.5C 628.5,324.667 633.5,324.833 638.5,325C 640.066,325.608 641.4,326.442 642.5,327.5 Z"/></g>
<g><path style="opacity:1" fill="#ffffff" d="M 391.5,317.5 C 392.598,318.601 392.765,319.934 392,321.5C 389.269,323.745 386.436,325.745 383.5,327.5C 385.502,324.666 388.002,322.333 391,320.5C 391.483,319.552 391.649,318.552 391.5,317.5 Z"/></g>
<g><path style="opacity:1" fill="#ffffff" d="M 633.5,326.5 C 625.152,326.543 616.819,326.876 608.5,327.5C 608.5,327.167 608.5,326.833 608.5,326.5C 616.992,325.408 625.326,325.408 633.5,326.5 Z"/></g>
<g><path style="opacity:1" fill="#ffffff" d="M 373.5,322.5 C 365.821,325.959 358.154,329.626 350.5,333.5C 350.414,332.504 350.748,331.671 351.5,331C 354.446,330.194 357.112,328.861 359.5,327C 363.993,325.002 368.66,323.502 373.5,322.5 Z"/></g>
<g><path style="opacity:1" fill="#ffffff" d="M 650.5,332.5 C 652.262,333.262 653.262,334.596 653.5,336.5C 655.386,347.456 654.386,358.123 650.5,368.5C 643.179,383.008 634.012,396.341 623,408.5C 562.486,468.701 491.986,513.701 411.5,543.5C 403.016,545.765 395.016,548.765 387.5,552.5C 378.918,555.487 370.251,558.487 361.5,561.5C 349.312,564.587 336.979,566.92 324.5,568.5C 313.605,569.888 302.605,570.555 291.5,570.5C 281.412,570.61 271.412,569.943 261.5,568.5C 255.587,568.042 250.587,565.709 246.5,561.5C 245.473,557.554 245.306,553.554 246,549.5C 247.229,545.379 248.729,541.379 250.5,537.5C 253.922,532.322 257.589,527.322 261.5,522.5C 264.063,521.408 266.23,519.742 268,517.5C 268.483,516.552 268.649,515.552 268.5,514.5C 271.557,511.115 274.557,507.782 277.5,504.5C 279.932,503.25 282.266,501.75 284.5,500C 293.574,491.484 302.574,482.984 311.5,474.5C 312.585,472.413 314.251,471.08 316.5,470.5C 320.051,468.889 323.051,466.556 325.5,463.5C 353.221,441.79 382.554,422.29 413.5,405C 448.972,385.098 485.638,367.598 523.5,352.5C 530.269,351.982 536.269,349.648 541.5,345.5C 544.522,345.196 547.522,344.696 550.5,344C 551.381,343.292 552.047,342.458 552.5,341.5C 553.995,341.011 555.329,340.345 556.5,339.5C 562.114,338.013 567.781,336.68 573.5,335.5C 583.784,333.693 594.117,331.693 604.5,329.5C 617.153,327.359 629.82,327.193 642.5,329C 645.032,330.456 647.699,331.623 650.5,332.5 Z"/></g>
<g><path style="opacity:1" fill="#ffffff" d="M 633.5,326.5 C 636.518,326.704 639.518,327.037 642.5,327.5C 645.54,328.68 648.206,330.347 650.5,332.5C 647.699,331.623 645.032,330.456 642.5,329C 629.82,327.193 617.153,327.359 604.5,329.5C 594.117,331.693 583.784,333.693 573.5,335.5C 575.779,334.349 578.112,333.349 580.5,332.5C 589.736,330.319 599.07,328.653 608.5,327.5C 616.819,326.876 625.152,326.543 633.5,326.5 Z"/></g>
<g><path style="opacity:1" fill="#ffffff" d="M 715.5,332.5 C 715.56,331.957 715.893,331.624 716.5,331.5C 717.832,418.332 717.832,504.999 716.5,591.5C 716.833,504.998 716.499,418.665 715.5,332.5 Z"/></g>
<g><path style="opacity:1" fill="#ffffff" d="M 580.5,332.5 C 578.112,333.349 575.779,334.349 573.5,335.5C 567.781,336.68 562.114,338.013 556.5,339.5C 564.034,335.658 572.034,333.324 580.5,332.5 Z"/></g>
<g><path style="opacity:1" fill="#ffffff" d="M 349.5,333.5 C 346.485,335.674 343.151,337.341 339.5,338.5C 341.921,335.289 345.254,333.622 349.5,333.5 Z"/></g>
<g><path style="opacity:1" fill="#ffffff" d="M 102.5,315.5 C 102.333,407.167 102.5,498.834 103,590.5C 103.366,592.452 104.199,594.118 105.5,595.5C 103.376,594.969 101.876,593.635 101,591.5C 100.333,500.167 100.333,408.833 101,317.5C 101.278,316.584 101.778,315.918 102.5,315.5 Z"/></g>
<g><path style="opacity:1" fill="#ffffff" d="M 103.5,313.5 C 103.833,313.5 104.167,313.5 104.5,313.5C 104.333,406.501 104.5,499.501 105,592.5C 105.5,593 106,593.5 106.5,594C 118.667,594.167 130.833,594.333 143,594.5C 155.519,594.499 167.686,593.832 179.5,592.5C 181.027,592.427 182.027,593.094 182.5,594.5C 157.339,595.498 132.005,595.831 106.5,595.5C 106.167,595.5 105.833,595.5 105.5,595.5C 104.199,594.118 103.366,592.452 103,590.5C 102.5,498.834 102.333,407.167 102.5,315.5C 103.338,315.158 103.672,314.492 103.5,313.5 Z"/></g>
<g><path style="opacity:1" fill="#ffffff" d="M 714.5,593.5 C 714.5,594.167 714.167,594.5 713.5,594.5C 590.833,594.667 468.166,594.5 345.5,594C 349.781,591.463 354.448,590.13 359.5,590C 362.561,588.47 365.561,586.97 368.5,585.5C 377.672,581.996 387.005,578.663 396.5,575.5C 399.716,575.655 402.383,574.655 404.5,572.5C 408.78,572.301 412.447,570.968 415.5,568.5C 479.708,542.189 539.708,508.856 595.5,468.5C 602.701,464.636 609.034,459.636 614.5,453.5C 631.667,440.512 647.834,426.178 663,410.5C 663.483,409.552 663.649,408.552 663.5,407.5C 667.195,403.474 670.862,399.474 674.5,395.5C 677.056,394.457 679.223,392.79 681,390.5C 684.082,386.266 686.916,381.933 689.5,377.5C 695.001,369.836 700.001,361.836 704.5,353.5C 706.748,350.672 708.748,347.672 710.5,344.5C 712.335,343.878 713.502,342.544 714,340.5C 714.5,424.833 714.667,509.166 714.5,593.5 Z"/></g>
<g><path style="opacity:1" fill="#ffffff" d="M 715.5,332.5 C 715.167,333.167 714.833,333.833 714.5,334.5C 713.167,337.833 711.833,341.167 710.5,344.5C 708.748,347.672 706.748,350.672 704.5,353.5C 704.215,351.712 704.548,350.045 705.5,348.5C 708.483,343.689 711.15,338.689 713.5,333.5C 713.957,332.702 714.624,332.369 715.5,332.5 Z"/></g>
<g><path style="opacity:1" fill="#ffffff" d="M 653.5,336.5 C 654.966,337.347 655.8,338.68 656,340.5C 656.667,346.5 656.667,352.5 656,358.5C 654.933,362.303 653.1,365.637 650.5,368.5C 654.386,358.123 655.386,347.456 653.5,336.5 Z"/></g>
<g><path style="opacity:1" fill="#ffffff" d="M 552.5,341.5 C 552.047,342.458 551.381,343.292 550.5,344C 547.522,344.696 544.522,345.196 541.5,345.5C 544.939,343.796 548.605,342.462 552.5,341.5 Z"/></g>
<g><path style="opacity:1" fill="#ffffff" d="M 541.5,345.5 C 536.269,349.648 530.269,351.982 523.5,352.5C 529.21,349.654 535.21,347.32 541.5,345.5 Z"/></g>
<g><path style="opacity:1" fill="#ffffff" d="M 168.5,328.5 C 169.65,333.552 170.983,338.552 172.5,343.5C 172.856,349.946 173.856,356.279 175.5,362.5C 173.868,359.442 172.701,356.109 172,352.5C 170.073,344.604 168.906,336.604 168.5,328.5 Z"/></g>
<g><path style="opacity:1" fill="#ffffff" d="M 714.5,334.5 C 715.499,419.998 715.833,505.665 715.5,591.5C 715.672,592.492 715.338,593.158 714.5,593.5C 714.667,509.166 714.5,424.833 714,340.5C 713.502,342.544 712.335,343.878 710.5,344.5C 711.833,341.167 713.167,337.833 714.5,334.5 Z"/></g>
<g><path style="opacity:1" fill="#ffffff" d="M 175.5,363.5 C 177.433,369.922 178.766,376.589 179.5,383.5C 178.207,382.158 177.374,380.491 177,378.5C 176.088,373.536 175.588,368.536 175.5,363.5 Z"/></g>
<g><path style="opacity:1" fill="#ffffff" d="M 689.5,377.5 C 686.916,381.933 684.082,386.266 681,390.5C 679.223,392.79 677.056,394.457 674.5,395.5C 679.51,389.46 684.51,383.46 689.5,377.5 Z"/></g>
<g><path style="opacity:1" fill="#ffffff" d="M 179.5,383.5 C 181.609,390.952 183.276,398.619 184.5,406.5C 185.219,408.764 185.552,411.097 185.5,413.5C 183.357,409.089 181.857,404.422 181,399.5C 180.17,394.192 179.67,388.859 179.5,383.5 Z"/></g>
<g><path style="opacity:1" fill="#ffffff" d="M 184.5,406.5 C 185.973,408.583 187.14,410.916 188,413.5C 188.498,416.482 188.665,419.482 188.5,422.5C 187.626,419.465 186.626,416.465 185.5,413.5C 185.552,411.097 185.219,408.764 184.5,406.5 Z"/></g>
<g><path style="opacity:1" fill="#ffffff" d="M 435.5,438.5 C 435.686,443.839 436.019,449.172 436.5,454.5C 435.284,461.439 434.284,468.439 433.5,475.5C 430.575,486.608 424.575,495.775 415.5,503C 404.286,511.938 391.953,518.772 378.5,523.5C 374.19,524.08 369.857,524.414 365.5,524.5C 358.151,524.451 350.817,524.118 343.5,523.5C 340.437,522.301 337.437,520.801 334.5,519C 332.866,518.506 331.199,518.34 329.5,518.5C 325.345,517.258 321.678,515.258 318.5,512.5C 315.312,509.632 312.145,506.632 309,503.5C 308.678,501.311 309.178,499.311 310.5,497.5C 311.5,495.833 312.833,494.5 314.5,493.5C 321.261,489.104 327.261,483.771 332.5,477.5C 360.705,453.374 391.705,433.208 425.5,417C 426.5,416.333 427.5,416.333 428.5,417C 432.138,423.747 434.471,430.914 435.5,438.5 Z"/></g>
<g><path style="opacity:1" fill="#ffffff" d="M 663.5,407.5 C 663.649,408.552 663.483,409.552 663,410.5C 647.834,426.178 631.667,440.512 614.5,453.5C 631.463,438.871 647.796,423.538 663.5,407.5 Z"/></g>
<g><path style="opacity:1" fill="#ffffff" d="M 211.5,424.5 C 206.421,429.915 200.754,434.582 194.5,438.5C 197.709,434.555 201.376,431.055 205.5,428C 207.405,426.579 209.405,425.412 211.5,424.5 Z"/></g>
<g><path style="opacity:1" fill="#ffffff" d="M 189.5,431.5 C 190.924,433.515 191.59,435.848 191.5,438.5C 190.076,436.485 189.41,434.152 189.5,431.5 Z"/></g>
<g><path style="opacity:1" fill="#ffffff" d="M 244.5,423.5 C 237.405,431.933 229.405,439.266 220.5,445.5C 228.194,437.804 236.194,430.471 244.5,423.5 Z"/></g>
<g><path style="opacity:1" fill="#ffffff" d="M 436.5,439.5 C 437.117,439.611 437.617,439.944 438,440.5C 438.667,449.5 438.667,458.5 438,467.5C 437.626,469.491 436.793,471.158 435.5,472.5C 437.645,461.556 437.978,450.556 436.5,439.5 Z"/></g>
<g><path style="opacity:1" fill="#ffffff" d="M 435.5,438.5 C 436.167,438.5 436.5,438.833 436.5,439.5C 437.978,450.556 437.645,461.556 435.5,472.5C 435.068,473.71 434.401,474.71 433.5,475.5C 434.284,468.439 435.284,461.439 436.5,454.5C 436.019,449.172 435.686,443.839 435.5,438.5 Z"/></g>
<g><path style="opacity:1" fill="#ffffff" d="M 614.5,453.5 C 609.034,459.636 602.701,464.636 595.5,468.5C 601.54,463.126 607.874,458.126 614.5,453.5 Z"/></g>
<g><path style="opacity:1" fill="#ffffff" d="M 715.5,332.5 C 716.499,418.665 716.833,504.998 716.5,591.5C 716.167,591.5 715.833,591.5 715.5,591.5C 715.833,505.665 715.499,419.998 714.5,334.5C 714.833,333.833 715.167,333.167 715.5,332.5 Z"/></g>
<g><path style="opacity:1" fill="#ffffff" d="M 325.5,463.5 C 323.051,466.556 320.051,468.889 316.5,470.5C 318.949,467.444 321.949,465.111 325.5,463.5 Z"/></g>
<g><path style="opacity:1" fill="#ffffff" d="M 204.5,463.5 C 200.636,470.701 195.636,477.034 189.5,482.5C 193.78,475.613 198.78,469.279 204.5,463.5 Z"/></g>
<g><path style="opacity:1" fill="#ffffff" d="M 332.5,477.5 C 327.261,483.771 321.261,489.104 314.5,493.5C 320.115,487.699 326.115,482.366 332.5,477.5 Z"/></g>
<g><path style="opacity:1" fill="#ffffff" d="M 311.5,474.5 C 302.574,482.984 293.574,491.484 284.5,500C 282.266,501.75 279.932,503.25 277.5,504.5C 287.937,493.391 299.271,483.391 311.5,474.5 Z"/></g>
<g><path style="opacity:1" fill="#ffffff" d="M 310.5,497.5 C 309.178,499.311 308.678,501.311 309,503.5C 312.145,506.632 315.312,509.632 318.5,512.5C 313.098,509.914 308.931,506.247 306,501.5C 307.371,499.959 308.871,498.625 310.5,497.5 Z"/></g>
<g><path style="opacity:1" fill="#ffffff" d="M 329.5,518.5 C 331.199,518.34 332.866,518.506 334.5,519C 337.437,520.801 340.437,522.301 343.5,523.5C 338.331,523.001 333.664,521.334 329.5,518.5 Z"/></g>
<g><path style="opacity:1" fill="#ffffff" d="M 172.5,509.5 C 171.562,516.704 168.895,523.038 164.5,528.5C 166.406,521.764 169.073,515.431 172.5,509.5 Z"/></g>
<g><path style="opacity:1" fill="#ffffff" d="M 268.5,514.5 C 268.649,515.552 268.483,516.552 268,517.5C 266.23,519.742 264.063,521.408 261.5,522.5C 263.372,519.418 265.705,516.751 268.5,514.5 Z"/></g>
<g><path style="opacity:1" fill="#ffffff" d="M 343.5,524.5 C 343.5,524.167 343.5,523.833 343.5,523.5C 350.817,524.118 358.151,524.451 365.5,524.5C 358.32,525.655 350.987,525.655 343.5,524.5 Z"/></g>
<g><path style="opacity:1" fill="#ffffff" d="M 378.5,523.5 C 371.674,525.927 364.507,526.927 357,526.5C 352.833,526.333 348.667,526.167 344.5,526C 343.944,525.617 343.611,525.117 343.5,524.5C 350.987,525.655 358.32,525.655 365.5,524.5C 369.857,524.414 374.19,524.08 378.5,523.5 Z"/></g>
<g><path style="opacity:1" fill="#ffffff" d="M 411.5,543.5 C 403.985,547.582 395.985,550.582 387.5,552.5C 395.016,548.765 403.016,545.765 411.5,543.5 Z"/></g>
<g><path style="opacity:1" fill="#ffffff" d="M 164.5,529.5 C 163.065,536.652 162.399,543.985 162.5,551.5C 162.349,558.281 163.015,564.947 164.5,571.5C 161.27,565.35 159.937,558.684 160.5,551.5C 160.187,543.741 161.52,536.408 164.5,529.5 Z"/></g>
<g><path style="opacity:1" fill="#ffffff" d="M 250.5,537.5 C 248.729,541.379 247.229,545.379 246,549.5C 245.306,553.554 245.473,557.554 246.5,561.5C 244.492,560.384 243.492,558.551 243.5,556C 244.123,552.519 244.623,549.019 245,545.5C 246.343,542.353 248.177,539.686 250.5,537.5 Z"/></g>
<g><path style="opacity:1" fill="#ffffff" d="M 361.5,561.5 C 345.561,567.502 328.894,570.835 311.5,571.5C 315.786,570.257 320.119,569.257 324.5,568.5C 336.979,566.92 349.312,564.587 361.5,561.5 Z"/></g>
<g><path style="opacity:1" fill="#ffffff" d="M 261.5,568.5 C 271.412,569.943 281.412,570.61 291.5,570.5C 302.605,570.555 313.605,569.888 324.5,568.5C 320.119,569.257 315.786,570.257 311.5,571.5C 299.85,572.499 288.183,572.666 276.5,572C 271.199,571.59 266.199,570.423 261.5,568.5 Z"/></g>
<g><path style="opacity:1" fill="#ffffff" d="M 415.5,568.5 C 412.447,570.968 408.78,572.301 404.5,572.5C 407.939,570.796 411.605,569.462 415.5,568.5 Z"/></g>
<g><path style="opacity:1" fill="#ffffff" d="M 404.5,572.5 C 402.383,574.655 399.716,575.655 396.5,575.5C 398.936,574.129 401.603,573.129 404.5,572.5 Z"/></g>
<g><path style="opacity:1" fill="#ffffff" d="M 354.5,588.5 C 350.06,590.538 345.393,592.204 340.5,593.5C 337.673,593.584 335.006,594.25 332.5,595.5C 332.577,594.25 333.244,593.417 334.5,593C 341.121,591.309 347.787,589.809 354.5,588.5 Z"/></g>
<g><path style="opacity:1" fill="#ffffff" d="M 368.5,585.5 C 365.561,586.97 362.561,588.47 359.5,590C 354.448,590.13 349.781,591.463 345.5,594C 468.166,594.5 590.833,594.667 713.5,594.5C 713.5,594.833 713.5,595.167 713.5,595.5C 712.833,595.5 712.167,595.5 711.5,595.5C 587.166,595.667 462.833,595.5 338.5,595C 339.416,594.722 340.082,594.222 340.5,593.5C 345.393,592.204 350.06,590.538 354.5,588.5C 359.167,587.5 363.833,586.5 368.5,585.5 Z"/></g>
<g><path style="opacity:1" fill="#ffffff" d="M 182.5,594.5 C 183.922,594.709 185.255,595.209 186.5,596C 159.664,596.83 132.997,596.664 106.5,595.5C 132.005,595.831 157.339,595.498 182.5,594.5 Z"/></g>
<g><path style="opacity:1" fill="#ffffff" d="M 340.5,593.5 C 340.082,594.222 339.416,594.722 338.5,595C 462.833,595.5 587.166,595.667 711.5,595.5C 584.5,596.833 457.5,596.833 330.5,595.5C 331.167,595.5 331.833,595.5 332.5,595.5C 335.006,594.25 337.673,593.584 340.5,593.5 Z"/></g>
<g><path style="opacity:1" fill="#ffffff" d="M 330.5,595.5 C 457.5,596.833 584.5,596.833 711.5,595.5C 712.167,595.5 712.833,595.5 713.5,595.5C 649.67,596.833 585.503,597.5 521,597.5C 456.833,597.167 392.667,596.833 328.5,596.5C 328.957,595.702 329.624,595.369 330.5,595.5 Z"/></g>
</svg>
